<svg width="16" height="16" viewBox="0 0 16 16" fill="none" xmlns="http://www.w3.org/2000/svg">
<path d="M7.99967 2.0013C8.36787 2.0013 8.66634 1.70282 8.66634 1.33464C8.66634 0.966449 8.36787 0.667969 7.99967 0.667969C7.63147 0.667969 7.33301 0.966449 7.33301 1.33464C7.33301 1.70282 7.63147 2.0013 7.99967 2.0013Z" fill="currentColor"/>
<path d="M5.28874 2.57552C5.65693 2.57552 5.9554 2.27704 5.9554 1.90885C5.9554 1.54066 5.65693 1.24219 5.28874 1.24219C4.92055 1.24219 4.62207 1.54066 4.62207 1.90885C4.62207 2.27704 4.92055 2.57552 5.28874 2.57552Z" fill="currentColor"/>
<path d="M3.04557 4.20443C3.41376 4.20443 3.71224 3.90595 3.71224 3.53776C3.71224 3.16957 3.41376 2.87109 3.04557 2.87109C2.67738 2.87109 2.37891 3.16957 2.37891 3.53776C2.37891 3.90595 2.67738 4.20443 3.04557 4.20443Z" fill="currentColor"/>
<path d="M1.65885 6.60677C2.02705 6.60677 2.32552 6.3083 2.32552 5.9401C2.32552 5.57192 2.02705 5.27344 1.65885 5.27344C1.29067 5.27344 0.992188 5.57192 0.992188 5.9401C0.992188 6.3083 1.29067 6.60677 1.65885 6.60677Z" fill="currentColor"/>
<path d="M1.36979 9.36458C1.73799 9.36458 2.03646 9.06612 2.03646 8.69792C2.03646 8.32972 1.73799 8.03125 1.36979 8.03125C1.00161 8.03125 0.703125 8.32972 0.703125 8.69792C0.703125 9.06612 1.00161 9.36458 1.36979 9.36458Z" fill="currentColor"/>
<path d="M2.22624 12.0013C2.59442 12.0013 2.8929 11.7028 2.8929 11.3346C2.8929 10.9664 2.59442 10.668 2.22624 10.668C1.85804 10.668 1.55957 10.9664 1.55957 11.3346C1.55957 11.7028 1.85804 12.0013 2.22624 12.0013Z" fill="currentColor"/>
<path d="M13.7731 12.0013C14.1413 12.0013 14.4398 11.7028 14.4398 11.3346C14.4398 10.9664 14.1413 10.668 13.7731 10.668C13.4049 10.668 13.1064 10.9664 13.1064 11.3346C13.1064 11.7028 13.4049 12.0013 13.7731 12.0013Z" fill="currentColor"/>
<path d="M14.6296 9.36458C14.9978 9.36458 15.2962 9.06612 15.2962 8.69792C15.2962 8.32972 14.9978 8.03125 14.6296 8.03125C14.2614 8.03125 13.9629 8.32972 13.9629 8.69792C13.9629 9.06612 14.2614 9.36458 14.6296 9.36458Z" fill="currentColor"/>
<path d="M14.3405 6.60677C14.7087 6.60677 15.0072 6.3083 15.0072 5.9401C15.0072 5.57192 14.7087 5.27344 14.3405 5.27344C13.9723 5.27344 13.6738 5.57192 13.6738 5.9401C13.6738 6.3083 13.9723 6.60677 14.3405 6.60677Z" fill="currentColor"/>
<path d="M12.9538 4.20443C13.322 4.20443 13.6204 3.90595 13.6204 3.53776C13.6204 3.16957 13.322 2.87109 12.9538 2.87109C12.5856 2.87109 12.2871 3.16957 12.2871 3.53776C12.2871 3.90595 12.5856 4.20443 12.9538 4.20443Z" fill="currentColor"/>
<path d="M10.7106 2.57552C11.0788 2.57552 11.3773 2.27704 11.3773 1.90885C11.3773 1.54066 11.0788 1.24219 10.7106 1.24219C10.3424 1.24219 10.0439 1.54066 10.0439 1.90885C10.0439 2.27704 10.3424 2.57552 10.7106 2.57552Z" fill="currentColor"/>
<path d="M8 9C9.1046 9 10 8.1046 10 7C10 5.89543 9.1046 5 8 5C6.8954 5 6 5.89543 6 7C6 8.1046 6.8954 9 8 9Z" fill="currentColor"/>
<path d="M12.4226 13.1901L12.1941 13.3496C11.0053 14.1797 9.55847 14.6667 7.99987 14.6667C6.44123 14.6667 4.99437 14.1797 3.80567 13.3496L3.57715 13.1901C4.19405 11.3385 5.93727 10 7.99987 10C10.0625 10 11.8057 11.3385 12.4226 13.1901Z" fill="currentColor"/>
</svg>
