<svg width="16" height="16" viewBox="0 0 16 16" fill="none" xmlns="http://www.w3.org/2000/svg">
<g clip-path="url(#clip0_162_4826)">
<mask id="mask0_162_4826" style="mask-type:luminance" maskUnits="userSpaceOnUse" x="0" y="0" width="16" height="16">
<path d="M16 0H0V16H16V0Z" fill="white"/>
</mask>
<g mask="url(#mask0_162_4826)">
<path d="M9.99977 4.66436L5.66647 8.99771C5.40125 9.26295 5.25225 9.6226 5.25225 9.99771C5.25225 10.3727 5.40125 10.7325 5.66647 10.9977C5.93169 11.263 6.2914 11.4119 6.66647 11.4119C7.04154 11.4119 7.40125 11.263 7.66647 10.9977L11.9998 6.66436C12.5303 6.13393 12.8282 5.41451 12.8282 4.66436C12.8282 3.91421 12.5303 3.19479 11.9998 2.66436C11.4694 2.13393 10.7499 1.83594 9.99977 1.83594C9.24964 1.83594 8.53024 2.13393 7.9998 2.66436L3.66647 6.9977C2.87082 7.79334 2.42383 8.87248 2.42383 9.99771C2.42383 11.123 2.87082 12.2021 3.66647 12.9977C4.46212 13.7934 5.54125 14.2404 6.66647 14.2404C7.79169 14.2404 8.87082 13.7934 9.66644 12.9977L13.9998 8.66436" stroke="currentColor" stroke-width="1.11111" stroke-linecap="round" stroke-linejoin="round"/>
</g>
</g>
<defs>
<clipPath id="clip0_162_4826">
<rect width="16" height="16" fill="white"/>
</clipPath>
</defs>
</svg>
