<svg width="16" height="16" viewBox="0 0 16 16" fill="none" xmlns="http://www.w3.org/2000/svg">
<path d="M11.6004 2.39844C12.1308 2.39844 12.6395 2.60915 13.0146 2.98422C13.3897 3.3593 13.6004 3.868 13.6004 4.39844V7.67844C13.3447 7.54761 13.0767 7.44231 12.8004 7.36404V5.59844H3.20039V11.5984C3.20039 11.9167 3.32682 12.2219 3.55186 12.447C3.77691 12.672 4.08213 12.7984 4.40039 12.7984H7.36599C7.44519 13.0776 7.54999 13.3448 7.68039 13.5984H4.40039C3.86996 13.5984 3.36125 13.3877 2.98618 13.0127C2.6111 12.6376 2.40039 12.1289 2.40039 11.5984V4.39844C2.40039 3.868 2.6111 3.3593 2.98618 2.98422C3.36125 2.60915 3.86996 2.39844 4.40039 2.39844H11.6004ZM11.6004 3.19844H4.40039C4.08213 3.19844 3.77691 3.32487 3.55186 3.54991C3.32682 3.77495 3.20039 4.08018 3.20039 4.39844V4.79844H12.8004V4.39844C12.8004 4.08018 12.674 3.77495 12.4489 3.54991C12.2239 3.32487 11.9187 3.19844 11.6004 3.19844ZM15.2004 11.5984C15.2004 12.5532 14.8211 13.4689 14.146 14.144C13.4708 14.8192 12.5552 15.1984 11.6004 15.1984C10.6456 15.1984 9.72994 14.8192 9.05481 14.144C8.37968 13.4689 8.00039 12.5532 8.00039 11.5984C8.00039 10.6437 8.37968 9.72798 9.05481 9.05285C9.72994 8.37772 10.6456 7.99844 11.6004 7.99844C12.5552 7.99844 13.4708 8.37772 14.146 9.05285C14.8211 9.72798 15.2004 10.6437 15.2004 11.5984ZM12.0004 9.99844C12.0004 9.89235 11.9582 9.79061 11.8832 9.71559C11.8082 9.64058 11.7065 9.59844 11.6004 9.59844C11.4943 9.59844 11.3926 9.64058 11.3175 9.71559C11.2425 9.79061 11.2004 9.89235 11.2004 9.99844V11.1984H10.0004C9.8943 11.1984 9.79256 11.2406 9.71755 11.3156C9.64253 11.3906 9.60039 11.4924 9.60039 11.5984C9.60039 11.7045 9.64253 11.8063 9.71755 11.8813C9.79256 11.9563 9.8943 11.9984 10.0004 11.9984H11.2004V13.1984C11.2004 13.3045 11.2425 13.4063 11.3175 13.4813C11.3926 13.5563 11.4943 13.5984 11.6004 13.5984C11.7065 13.5984 11.8082 13.5563 11.8832 13.4813C11.9582 13.4063 12.0004 13.3045 12.0004 13.1984V11.9984H13.2004C13.3065 11.9984 13.4082 11.9563 13.4832 11.8813C13.5582 11.8063 13.6004 11.7045 13.6004 11.5984C13.6004 11.4924 13.5582 11.3906 13.4832 11.3156C13.4082 11.2406 13.3065 11.1984 13.2004 11.1984H12.0004V9.99844Z" fill="currentColor"/>
</svg>
