<svg width="16" height="16" viewBox="0 0 16 16" fill="none" xmlns="http://www.w3.org/2000/svg">
<path d="M12.6666 4C12.4898 4 12.3202 4.07024 12.1952 4.19526C12.0702 4.32029 11.9999 4.48986 11.9999 4.66667V7.33333C11.9999 7.51014 11.9297 7.67971 11.8047 7.80474C11.6796 7.92976 11.5101 8 11.3333 8H4.93993L5.8066 7.14C5.93213 7.01446 6.00266 6.8442 6.00266 6.66667C6.00266 6.48913 5.93213 6.31887 5.8066 6.19333C5.68106 6.0678 5.5108 5.99727 5.33326 5.99727C5.15573 5.99727 4.98547 6.0678 4.85993 6.19333L2.85993 8.19333C2.79924 8.25674 2.75166 8.3315 2.71993 8.41333C2.65325 8.57564 2.65325 8.75769 2.71993 8.92C2.75166 9.00183 2.79924 9.0766 2.85993 9.14L4.85993 11.14C4.92191 11.2025 4.99564 11.2521 5.07688 11.2859C5.15812 11.3198 5.24526 11.3372 5.33326 11.3372C5.42127 11.3372 5.50841 11.3198 5.58965 11.2859C5.67089 11.2521 5.74462 11.2025 5.8066 11.14C5.86908 11.078 5.91868 11.0043 5.95252 10.9231C5.98637 10.8418 6.0038 10.7547 6.0038 10.6667C6.0038 10.5787 5.98637 10.4915 5.95252 10.4103C5.91868 10.329 5.86908 10.2553 5.8066 10.1933L4.93993 9.33333H11.3333C11.8637 9.33333 12.3724 9.12262 12.7475 8.74755C13.1225 8.37247 13.3333 7.86377 13.3333 7.33333V4.66667C13.3333 4.48986 13.263 4.32029 13.138 4.19526C13.013 4.07024 12.8434 4 12.6666 4Z" fill="currentColor"/>
</svg>
