<svg width="16" height="16" viewBox="0 0 16 16" fill="none" xmlns="http://www.w3.org/2000/svg">
<path d="M12.5477 5.15332C12.5476 4.7008 12.3676 4.26721 12.0477 3.94727C11.7277 3.62731 11.2941 3.44731 10.8416 3.44727C10.3891 3.44727 9.95458 3.62727 9.63457 3.94727L9.31914 4.2627C9.11365 4.46808 8.78046 4.46811 8.575 4.2627C8.36954 4.05724 8.36961 3.72405 8.575 3.51855L8.89043 3.20312C9.40778 2.68579 10.1099 2.39453 10.8416 2.39453C11.5732 2.39458 12.2745 2.68583 12.7918 3.20312C13.3091 3.72048 13.6004 4.42177 13.6004 5.15332C13.6004 5.88492 13.3092 6.58712 12.7918 7.10449L10.2664 9.62988C10.0124 9.88813 9.70963 10.0931 9.37578 10.2334C9.04018 10.3744 8.67929 10.4473 8.31523 10.4473C7.95135 10.4472 7.59111 10.3744 7.25566 10.2334C6.92016 10.0924 6.61594 9.88609 6.36113 9.62598C6.15777 9.41838 6.16135 9.0852 6.36895 8.88184C6.57654 8.67847 6.90972 8.68205 7.11309 8.88965C7.26977 9.04956 7.45734 9.17688 7.66387 9.26367C7.8701 9.35026 8.09157 9.39447 8.31523 9.39453C8.53904 9.39453 8.76113 9.35034 8.96758 9.26367C9.17412 9.17688 9.36167 9.04958 9.51836 8.88965L12.0477 6.35938C12.3676 6.03943 12.5477 5.60584 12.5477 5.15332Z" fill="currentColor"/>
<path d="M2.40137 10.8426C2.40138 10.1111 2.69263 9.4098 3.20996 8.89245L5.73535 6.36608C5.98931 6.10794 6.2921 5.90286 6.62598 5.76257C6.96146 5.6216 7.32166 5.54875 7.68555 5.5487C8.04957 5.5487 8.41049 5.62154 8.74609 5.76257C9.08161 5.90358 9.3859 6.10999 9.64062 6.36999C9.84393 6.57755 9.8403 6.91075 9.63281 7.11413C9.42523 7.31751 9.09205 7.3139 8.88867 7.10632C8.73195 6.9464 8.54436 6.81905 8.33789 6.73229C8.1315 6.64563 7.90941 6.60143 7.68555 6.60143C7.46165 6.60148 7.23961 6.64556 7.0332 6.73229C6.82687 6.81902 6.64007 6.94649 6.4834 7.10632L3.9541 9.63659C3.63412 9.95658 3.45411 10.3902 3.4541 10.8426C3.4541 11.2952 3.6341 11.7297 3.9541 12.0497C4.27404 12.3694 4.70786 12.5487 5.16016 12.5487C5.61244 12.5487 6.04626 12.3694 6.36621 12.0497L6.68262 11.7333C6.88812 11.528 7.22134 11.5279 7.42676 11.7333C7.63218 11.9387 7.63204 12.2719 7.42676 12.4774L7.11133 12.7938C6.59399 13.3112 5.89181 13.6014 5.16016 13.6014C4.42873 13.6014 3.72725 13.3109 3.20996 12.7938C2.69263 12.2765 2.40137 11.5743 2.40137 10.8426Z" fill="currentColor"/>
</svg>
