<svg width="16" height="16" viewBox="0 0 16 16" fill="none" xmlns="http://www.w3.org/2000/svg">
<g clip-path="url(#clip0_162_4889)">
<mask id="mask0_162_4889" style="mask-type:luminance" maskUnits="userSpaceOnUse" x="0" y="0" width="16" height="16">
<path d="M16 0H0V16H16V0Z" fill="white"/>
</mask>
<g mask="url(#mask0_162_4889)">
<path d="M7.33301 4H13.333" stroke="currentColor" stroke-width="1.11111" stroke-linecap="round" stroke-linejoin="round"/>
<path d="M7.33301 8H13.333" stroke="currentColor" stroke-width="1.11111" stroke-linecap="round" stroke-linejoin="round"/>
<path d="M8 12H13.3333" stroke="currentColor" stroke-width="1.11111" stroke-linecap="round" stroke-linejoin="round"/>
<path d="M2.66699 10.6654C2.66699 10.3118 2.80747 9.97256 3.05752 9.72252C3.30756 9.47248 3.64671 9.33203 4.00033 9.33203C4.35394 9.33203 4.69309 9.47248 4.94313 9.72252C5.19319 9.97256 5.33366 10.3118 5.33366 10.6654C5.33366 11.0594 5.00033 11.332 4.66699 11.6654L2.66699 13.332H5.33366" stroke="currentColor" stroke-width="1.11111" stroke-linecap="round" stroke-linejoin="round"/>
<path d="M4.00033 6.66797V2.66797L2.66699 4.0013" stroke="currentColor" stroke-width="1.11111" stroke-linecap="round" stroke-linejoin="round"/>
</g>
</g>
<defs>
<clipPath id="clip0_162_4889">
<rect width="16" height="16" fill="white"/>
</clipPath>
</defs>
</svg>
