<svg width="16" height="16" viewBox="0 0 16 16" fill="none" xmlns="http://www.w3.org/2000/svg">
<path fill-rule="evenodd" clip-rule="evenodd" d="M11.1113 3.3329C11.1113 2.47379 11.8078 1.77734 12.6669 1.77734H13.1113C13.9704 1.77734 14.6669 2.47379 14.6669 3.3329V12.6662C14.6669 13.5253 13.9704 14.2218 13.1113 14.2218H12.6669C11.8078 14.2218 11.1113 13.5253 11.1113 12.6662V3.3329Z" fill="currentColor" fill-opacity="0.4"/>
<path fill-rule="evenodd" clip-rule="evenodd" d="M6.22266 7.77821C6.22266 6.9191 6.9191 6.22266 7.77821 6.22266H8.22266C9.08177 6.22266 9.77821 6.9191 9.77821 7.77821V12.6671C9.77821 13.5262 9.08177 14.2227 8.22266 14.2227H7.77821C6.9191 14.2227 6.22266 13.5262 6.22266 12.6671V7.77821Z" fill="currentColor"/>
<path fill-rule="evenodd" clip-rule="evenodd" d="M1.33301 11.3329C1.33301 10.4738 2.02945 9.77734 2.88856 9.77734H3.33301C4.19212 9.77734 4.88856 10.4738 4.88856 11.3329V12.6662C4.88856 13.5253 4.19212 14.2218 3.33301 14.2218H2.88856C2.02945 14.2218 1.33301 13.5253 1.33301 12.6662V11.3329Z" fill="currentColor"/>
</svg>
