<svg width="16" height="16" viewBox="0 0 16 16" fill="none" xmlns="http://www.w3.org/2000/svg">
<path d="M11.7773 1.77734H4.22179C2.87334 1.77734 1.77734 2.87068 1.77734 4.22179V11.7773C1.77734 13.1285 2.87334 14.2218 4.22179 14.2218H11.7773C13.1258 14.2218 14.2218 13.1285 14.2218 11.7773V4.22179C14.2218 2.87068 13.1258 1.77734 11.7773 1.77734ZM7.3329 4.82725C7.3329 4.45917 7.63148 4.16059 7.99957 4.16059C8.36765 4.16059 8.66623 4.45917 8.66623 4.82725V8.44401C8.66623 8.8121 8.36765 9.11068 7.99957 9.11068C7.63148 9.11068 7.3329 8.8121 7.3329 8.44401V4.82725ZM7.99957 11.9258C7.5089 11.9258 7.11068 11.5265 7.11068 11.0369C7.11068 10.5473 7.5089 10.148 7.99957 10.148C8.49023 10.148 8.88845 10.5473 8.88845 11.0369C8.88845 11.5265 8.49023 11.9258 7.99957 11.9258Z" fill="currentColor"/>
</svg>
