<svg width="16" height="16" viewBox="0 0 16 16" fill="none" xmlns="http://www.w3.org/2000/svg">
<path d="M5.55545 9.55469H3.33322C2.84231 9.55469 2.44434 9.95266 2.44434 10.4436V12.6658C2.44434 13.1567 2.84231 13.5547 3.33322 13.5547H5.55545C6.04637 13.5547 6.44434 13.1567 6.44434 12.6658V10.4436C6.44434 9.95266 6.04637 9.55469 5.55545 9.55469Z" stroke="currentColor" stroke-width="1.33333" stroke-linecap="round" stroke-linejoin="round"/>
<path d="M12.6668 9.55469H10.4446C9.95363 9.55469 9.55566 9.95266 9.55566 10.4436V12.6658C9.55566 13.1567 9.95363 13.5547 10.4446 13.5547H12.6668C13.1577 13.5547 13.5557 13.1567 13.5557 12.6658V10.4436C13.5557 9.95266 13.1577 9.55469 12.6668 9.55469Z" stroke="currentColor" stroke-width="1.33333" stroke-linecap="round" stroke-linejoin="round"/>
<path d="M13.7556 3.81317L12.1842 2.24182C11.8371 1.89469 11.2743 1.89469 10.9271 2.24182L9.35578 3.81317C9.00864 4.1603 9.00864 4.72311 9.35578 5.07025L10.9271 6.6416C11.2743 6.98873 11.8371 6.98873 12.1842 6.6416L13.7556 5.07025C14.1027 4.72311 14.1027 4.1603 13.7556 3.81317Z" stroke="currentColor" stroke-width="1.33333" stroke-linecap="round" stroke-linejoin="round"/>
<path d="M5.55545 2.44531H3.33322C2.84231 2.44531 2.44434 2.84328 2.44434 3.3342V5.55642C2.44434 6.04734 2.84231 6.44531 3.33322 6.44531H5.55545C6.04637 6.44531 6.44434 6.04734 6.44434 5.55642V3.3342C6.44434 2.84328 6.04637 2.44531 5.55545 2.44531Z" stroke="currentColor" stroke-width="1.33333" stroke-linecap="round" stroke-linejoin="round"/>
</svg>
