<svg width="16" height="16" viewBox="0 0 16 16" fill="none" xmlns="http://www.w3.org/2000/svg">
<g clip-path="url(#clip0_188_7159)">
<path d="M10.6667 11.9974C11.0203 11.9974 11.3594 12.1379 11.6095 12.3879C11.8595 12.638 12 12.9771 12 13.3307C12 12.9771 12.1405 12.638 12.3905 12.3879C12.6406 12.1379 12.9797 11.9974 13.3333 11.9974C12.9797 11.9974 12.6406 11.8569 12.3905 11.6069C12.1405 11.3568 12 11.0177 12 10.6641C12 11.0177 11.8595 11.3568 11.6095 11.6069C11.3594 11.8569 11.0203 11.9974 10.6667 11.9974ZM10.6667 3.9974C11.0203 3.9974 11.3594 4.13787 11.6095 4.38792C11.8595 4.63797 12 4.97711 12 5.33073C12 4.97711 12.1405 4.63797 12.3905 4.38792C12.6406 4.13787 12.9797 3.9974 13.3333 3.9974C12.9797 3.9974 12.6406 3.85692 12.3905 3.60687C12.1405 3.35682 12 3.01768 12 2.66406C12 3.01768 11.8595 3.35682 11.6095 3.60687C11.3594 3.85692 11.0203 3.9974 10.6667 3.9974ZM6 11.9974C6 10.9365 6.42143 9.91911 7.17157 9.16897C7.92172 8.41882 8.93913 7.9974 10 7.9974C8.93913 7.9974 7.92172 7.57597 7.17157 6.82582C6.42143 6.07568 6 5.05826 6 3.9974C6 5.05826 5.57857 6.07568 4.82843 6.82582C4.07828 7.57597 3.06087 7.9974 2 7.9974C3.06087 7.9974 4.07828 8.41882 4.82843 9.16897C5.57857 9.91911 6 10.9365 6 11.9974Z" fill="currentColor" stroke="currentColor" stroke-linecap="round" stroke-linejoin="round"/>
</g>
<defs>
<clipPath id="clip0_188_7159">
<rect width="16" height="16" fill="white"/>
</clipPath>
</defs>
</svg>
