<svg width="16" height="16" viewBox="0 0 16 16" fill="none" xmlns="http://www.w3.org/2000/svg">
<g clip-path="url(#clip0_162_4932)">
<path d="M5.33301 7.9987C5.33301 8.70594 5.61396 9.38422 6.11406 9.88432C6.61415 10.3844 7.29243 10.6654 7.99967 10.6654C8.70692 10.6654 9.3852 10.3844 9.88529 9.88432C10.3854 9.38422 10.6663 8.70594 10.6663 7.9987C10.6663 7.29145 10.3854 6.61318 9.88529 6.11308C9.3852 5.61298 8.70692 5.33203 7.99967 5.33203C7.29243 5.33203 6.61415 5.61298 6.11406 6.11308C5.61396 6.61318 5.33301 7.29145 5.33301 7.9987Z" stroke="currentColor" stroke-width="1.11111" stroke-linecap="round" stroke-linejoin="round"/>
<path d="M10.6667 7.9999V8.9999C10.6667 9.44193 10.8423 9.86585 11.1548 10.1784C11.4674 10.491 11.8913 10.6666 12.3333 10.6666C12.7754 10.6666 13.1993 10.491 13.5118 10.1784C13.8244 9.86585 14 9.44193 14 8.9999V7.9999C14.0017 6.71063 13.588 5.45513 12.8203 4.41936C12.0525 3.38359 10.9716 2.62267 9.73759 2.2493C8.50357 1.87593 7.18211 1.90998 5.96896 2.34641C4.7558 2.78283 3.7155 3.59842 3.00214 4.67235C2.28878 5.74628 1.94031 7.02143 2.00837 8.30889C2.07642 9.59636 2.55737 10.8277 3.37997 11.8204C4.20257 12.8132 5.32306 13.5145 6.57546 13.8206C7.82786 14.1267 9.14555 14.0213 10.3333 13.5199" stroke="currentColor" stroke-width="1.11111" stroke-linecap="round" stroke-linejoin="round"/>
</g>
<defs>
<clipPath id="clip0_162_4932">
<rect width="16" height="16" fill="white"/>
</clipPath>
</defs>
</svg>
