<svg width="16" height="16" viewBox="0 0 16 16" fill="none" xmlns="http://www.w3.org/2000/svg">
<path d="M2.88889 2H7.264C7.73511 2 8.18756 2.18756 8.52089 2.52089L13.632 7.632C14.3262 8.32622 14.3262 9.45156 13.632 10.1458L10.1458 13.632C9.45156 14.3262 8.32622 14.3262 7.632 13.632L2.52089 8.52089C2.18756 8.18756 2 7.73511 2 7.264V2.88889C2 2.39822 2.39822 2 2.88889 2Z" stroke="currentColor" stroke-width="1.33333" stroke-linecap="round" stroke-linejoin="round"/>
<path d="M5.55642 6.66753C6.17007 6.66753 6.66753 6.17007 6.66753 5.55642C6.66753 4.94277 6.17007 4.44531 5.55642 4.44531C4.94277 4.44531 4.44531 4.94277 4.44531 5.55642C4.44531 6.17007 4.94277 6.66753 5.55642 6.66753Z" fill="currentColor"/>
</svg>
