<svg width="16" height="16" viewBox="0 0 16 16" fill="none" xmlns="http://www.w3.org/2000/svg">
<g clip-path="url(#clip0_162_4793)">
<path d="M7.99978 0.890625C4.07889 0.890625 0.888672 4.08085 0.888672 8.00174C0.888672 11.9226 4.07889 15.1128 7.99978 15.1128C11.9207 15.1128 15.1109 11.9226 15.1109 8.00174C15.1109 4.08085 11.9207 0.890625 7.99978 0.890625ZM11.4158 5.9644L7.63801 10.8533C7.51712 11.0097 7.33312 11.1048 7.13578 11.112C7.12689 11.112 7.11889 11.112 7.11089 11.112C6.92245 11.112 6.74201 11.032 6.61489 10.8915L4.61489 8.66929C4.36867 8.39551 4.39089 7.97418 4.66467 7.72707C4.93934 7.48174 5.35889 7.50307 5.60689 7.77685L7.07178 9.40529L10.3616 5.1484C10.5864 4.85685 11.006 4.80351 11.2967 5.0284C11.5882 5.25329 11.6416 5.67196 11.4167 5.96351L11.4158 5.9644Z" fill="currentColor"/>
</g>
<defs>
<clipPath id="clip0_162_4793">
<rect width="16" height="16" fill="white"/>
</clipPath>
</defs>
</svg>
