<svg width="16" height="16" viewBox="0 0 16 16" fill="none" xmlns="http://www.w3.org/2000/svg">
<g clip-path="url(#clip0_162_4801)">
<path d="M7.99978 0.890625C4.07889 0.890625 0.888672 4.08085 0.888672 8.00174C0.888672 11.9226 4.07889 15.1128 7.99978 15.1128C11.9207 15.1128 15.1109 11.9226 15.1109 8.00174C15.1109 4.08085 11.9207 0.890625 7.99978 0.890625ZM10.9153 9.97507C11.1758 10.2355 11.1758 10.6577 10.9153 10.9182C10.7856 11.048 10.6149 11.1137 10.4442 11.1137C10.2736 11.1137 10.1029 11.0488 9.97312 10.9182L7.99978 8.94485L6.02645 10.9182C5.89667 11.048 5.72601 11.1137 5.55534 11.1137C5.38467 11.1137 5.21401 11.0488 5.08423 10.9182C4.82378 10.6577 4.82378 10.2355 5.08423 9.97507L7.05756 8.00174L5.08423 6.0284C4.82378 5.76796 4.82378 5.34574 5.08423 5.08529C5.34467 4.82485 5.76689 4.82485 6.02734 5.08529L8.00067 7.05863L9.97401 5.08529C10.2344 4.82485 10.6567 4.82485 10.9171 5.08529C11.1776 5.34574 11.1776 5.76796 10.9171 6.0284L8.94378 8.00174L10.9171 9.97507H10.9153Z" fill="currentColor"/>
</g>
<defs>
<clipPath id="clip0_162_4801">
<rect width="16" height="16" fill="white"/>
</clipPath>
</defs>
</svg>
