<svg width="16" height="16" viewBox="0 0 16 16" fill="none" xmlns="http://www.w3.org/2000/svg">
<path d="M4.43359 2.63134C5.12515 2.17089 5.91093 1.84023 6.75537 1.67578" stroke="currentColor" stroke-width="1.33333" stroke-linecap="round" stroke-linejoin="round"/>
<path d="M1.66992 6.78365C1.83437 5.92321 2.16948 5.1241 2.6397 4.42188" stroke="currentColor" stroke-width="1.33333" stroke-linecap="round" stroke-linejoin="round"/>
<path d="M4.43359 13.3672C5.12515 13.8276 5.91093 14.1583 6.75537 14.3227" stroke="currentColor" stroke-width="1.33333" stroke-linecap="round" stroke-linejoin="round"/>
<path d="M1.66992 9.21875C1.83437 10.0792 2.16948 10.8783 2.6397 11.5805" stroke="currentColor" stroke-width="1.33333" stroke-linecap="round" stroke-linejoin="round"/>
<path d="M9.24609 1.67578C10.0905 1.84023 10.8763 2.17089 11.5679 2.63134" stroke="currentColor" stroke-width="1.33333" stroke-linecap="round" stroke-linejoin="round"/>
<path d="M13.3604 4.42188C13.8306 5.1241 14.1657 5.92321 14.3301 6.78365" stroke="currentColor" stroke-width="1.33333" stroke-linecap="round" stroke-linejoin="round"/>
<path d="M9.24609 14.3227C10.0905 14.1583 10.8763 13.8276 11.5679 13.3672" stroke="currentColor" stroke-width="1.33333" stroke-linecap="round" stroke-linejoin="round"/>
<path d="M13.3604 11.5805C13.8306 10.8783 14.1657 10.0792 14.3301 9.21875" stroke="currentColor" stroke-width="1.33333" stroke-linecap="round" stroke-linejoin="round"/>
</svg>
